<svg height="720" viewBox="0 0 110.6 32" width="2500" xmlns="http://www.w3.org/2000/svg"><path d="m0 16c0 8.8 7.2 16 16 16s16-7.2 16-16-7.2-16-16-16-16 7.2-16 16z" fill="#1eccb0"/><path d="m13.8 25.1c-.6-1-1.4-1.9-2.4-2.5s-2-1.1-3.2-1.4c-.1 0-.2 0-.3.1s-.1.2-.1.3 0 .2.1.2c1.3 1.9 3.3 3.3 5.5 3.9h.3s.1 0 .1-.1l.1-.1v-.2c0-.1 0-.2-.1-.2zm11.8-11.8v-.1c-.5-1.8-1.5-3.4-2.9-4.6s-3-2.1-4.8-2.4h-.1c-.1 0-.2 0-.3.1s-.1.2-.1.3v.1c.9 5.5.3 11.1-1.7 16.3 0 .1-.1.1-.1.2s-.1.1-.2.1h-.2s-.1 0-.1-.1l-.1-.1v-.2s-.1-.7-.1-1c-.6-4.8-2-9.4-4.3-13.7 0-.1-.1-.1-.1-.1l-.1-.1h-.4c-1.4 1.1-2.5 2.5-3.2 4.2v.3c0 .1.1.2.2.2 2.2 1.4 4 3.2 5.3 5.5 1.3 2.2 2 4.8 2.1 7.3 0 .1 0 .2.1.3s.2.1.2.1c.2 0 .5.1.7.1.1 0 .2 0 .3-.1s.1-.1.1-.2c.5-2.6 1.6-5.1 3.3-7.2s3.8-3.7 6.3-4.8c.1 0 .1-.1.2-.1zm-.9 7.6c0-.1 0-.2-.1-.3s-.2-.1-.3-.1h-.1c-3.1.7-5.9 2.4-7.9 4.8-.1.1-.1.2-.1.3s0 .2.1.3.2.1.3.1c1.6-.1 3.2-.6 4.6-1.4s2.6-2 3.4-3.4c.1-.1.1-.2.1-.3z" fill="#fff"/><path d="m40.3 22c-.8 0-1.6-.1-2.3-.5-.6-.3-1.1-.8-1.5-1.4-.3-.7-.5-1.4-.5-2.1v-.3h2.8c0 .5.1.9.3 1.3.2.2.6.4.9.4s.7 0 1-.2c.2-.1.3-.4.4-.6.1-.3.1-.6.1-.9v-8.5h3.1v8.4c.1 1.2-.3 2.4-1.1 3.3-.4.4-1 .7-1.5.9-.6.1-1.1.2-1.7.2zm7.4-10.9c-.3 0-.6-.1-.8-.2s-.4-.3-.6-.5c-.1-.2-.2-.5-.2-.8s.1-.6.2-.8.3-.4.6-.5.5-.2.8-.2.6.1.8.2.4.3.6.5c.1.2.2.5.2.8s-.1.5-.2.8c-.1.2-.3.4-.6.5-.2.1-.5.2-.8.2zm-1.4 10.6v-9.3h2.8v9.3zm9 .3c-.9 0-1.8-.2-2.5-.6s-1.3-1-1.7-1.7c-.4-.8-.6-1.7-.6-2.6s.2-1.8.6-2.6c.4-.7.9-1.3 1.7-1.7s1.7-.6 2.5-.6c.9 0 1.7.2 2.5.6.7.4 1.3 1 1.6 1.7.4.8.6 1.7.6 2.6s-.2 1.8-.6 2.6c-.4.7-1 1.3-1.7 1.7s-1.6.6-2.4.6zm0-2.1c.4 0 .8-.1 1.1-.3.3-.3.6-.6.7-1 .2-.5.2-1 .2-1.5s-.1-1-.2-1.4-.3-.7-.6-1-.7-.4-1.1-.4-.7.1-1 .3-.5.6-.7.9c-.2.5-.2 1-.2 1.5s.1 1 .2 1.5c.1.4.3.7.7 1 .1.2.5.3.9.4zm11 2.1c-.9 0-1.8-.1-2.6-.4s-1.5-.7-2-1.3-.8-1.4-.8-2.1v-.2h3.1c0 .3.1.7.3.9.2.3.5.4.9.5s.8.2 1.2.2c.5 0 1.1-.1 1.5-.3.2-.1.3-.2.5-.4.1-.2.2-.4.1-.6 0-.2-.1-.5-.2-.6-.2-.2-.4-.4-.6-.5-.4-.2-.8-.3-1.2-.4l-2.3-.6c-.6-.1-1.1-.4-1.6-.8-.4-.3-.8-.7-1-1.1-.2-.5-.3-1-.3-1.5 0-.8.2-1.5.7-2.1s1.1-1 1.8-1.3c.7-.4 1.6-.5 2.4-.4.9 0 1.7.1 2.5.4.7.2 1.3.7 1.7 1.2.4.6.7 1.3.7 2h-3c0-.2-.1-.4-.2-.6s-.2-.3-.4-.4c-.5-.2-1-.4-1.5-.3-.4 0-.9.1-1.3.3-.2.1-.3.2-.4.3s-.1.3-.1.5 0 .4.1.6.3.3.5.4c.3.1.7.3 1 .3l1.5.4c.8.2 1.5.5 2.2.8.6.3 1 .6 1.4 1.1s.6 1.2.5 1.8c0 .8-.2 1.5-.6 2.2-.5.6-1.1 1.1-1.8 1.4-.8.4-1.8.6-2.7.6zm9.3 0c-.6 0-1.2-.1-1.7-.3s-.9-.6-1.1-1c-.3-.5-.4-1-.4-1.6 0-.5.1-.9.3-1.3s.5-.7.9-1c1.1-.6 2.3-.8 3.4-.7h1.4v-.3c0-.3 0-.7-.1-1-.1-.2-.3-.4-.5-.6-.3-.1-.6-.2-.8-.2-.4 0-.8.1-1.1.3l-.3.3c-.1.1-.1.3-.1.4h-2.7c0-.6.2-1.1.6-1.5.4-.5.9-.8 1.5-1 .7-.2 1.5-.3 2.3-.3s1.6.1 2.3.4c.6.2 1 .7 1.3 1.2.3.7.5 1.4.4 2.1v5.8h-2.5l-.1-1.1c-.3.4-.6.8-1.1 1-.6.2-1.3.4-1.9.4zm1-2c.3 0 .7-.1 1-.2s.5-.4.6-.6c.2-.3.2-.7.2-1v-.6h-1c-.4 0-.8 0-1.2.1-.3.1-.5.2-.7.4-.1.1-.2.2-.2.3s-.1.3-.1.4c0 .2 0 .3.1.5s.2.3.3.4c.3.2.6.3 1 .3zm8.9 2c-.6 0-1.2-.1-1.7-.3s-.9-.6-1.1-1c-.3-.5-.4-1-.4-1.6 0-.5.1-.9.3-1.3s.5-.7.9-1c1.1-.6 2.3-.8 3.5-.8h1.4v-.3c0-.3 0-.7-.1-1-.1-.2-.3-.4-.5-.5-.3-.1-.6-.2-.8-.2-.4 0-.8.1-1.1.3l-.3.3c-.1.1-.1.3-.1.4h-2.7c0-.6.2-1.1.6-1.5.4-.5.9-.8 1.5-1 .7-.2 1.5-.3 2.3-.3s1.6.1 2.3.4c.6.2 1 .7 1.3 1.2.3.7.5 1.4.4 2.1v5.8h-2.6l-.1-1.1c-.3.4-.6.8-1.1 1-.6.2-1.3.4-1.9.4zm1-2c.3 0 .7-.1 1-.2s.5-.4.6-.6c.2-.3.2-.7.2-1v-.6h-1c-.4 0-.8 0-1.2.1-.3.1-.5.2-.7.4-.1.1-.2.2-.2.3s-.1.3-.1.4c0 .2 0 .3.1.5s.2.3.3.4c.3.2.6.3 1 .3zm8.2 1.7-3-9.3h3l1.7 6.2 1.7-6.2h2.7l-3 9.3zm7.1 0v-9.3h2.7v1.3c.3-.5.7-.9 1.2-1.1.5-.3 1-.4 1.6-.4s1.2.1 1.8.4c.5.3.9.7 1.1 1.2.3.6.4 1.3.4 2v6h-2.8v-5.2c0-.6-.1-1.2-.4-1.7-.1-.2-.3-.3-.5-.4s-.4-.1-.6-.1-.5 0-.7.1-.4.2-.6.4c-.3.5-.5 1.1-.4 1.7v5.1z" fill="#141414"/></svg>